<svg width="1920" height="1596" viewBox="0 0 1920 1596" fill="none" xmlns="http://www.w3.org/2000/svg">
<g clip-path="url(#clip0_177_567)">
<rect width="1920" height="1596" fill="#000618"/>
<g opacity="0.14" filter="url(#filter0_f_177_567)">
<path d="M602.547 1135.32C451.653 1162.12 408.49 981.459 467.568 822.659L1580.23 -290L1999.8 129.574L1700.26 295.408C1613.87 350.037 1387.99 512.39 1175.61 724.768C910.142 990.241 753.44 1108.53 602.547 1135.32Z" fill="url(#paint0_linear_177_567)"/>
</g>
<mask id="mask0_177_567" style="mask-type:alpha" maskUnits="userSpaceOnUse" x="58" y="843" width="1247" height="610">
<path d="M76.9623 1287.36C12.2201 1198.73 126.162 1038.41 224.623 958.319C240.874 945.1 260.013 936.297 280.101 930.354C394.181 896.601 579.861 843 598.645 843C624.346 843 1068.92 871.415 1238.43 939.341C1407.94 1007.27 1209.67 1205.36 1129.81 1338.24C1049.95 1471.11 912.266 1423.21 640.257 1448.65C368.248 1474.09 147.336 1383.7 76.9623 1287.36Z" fill="#C4C4C4"/>
</mask>
<g mask="url(#mask0_177_567)">
<path opacity="0.14" d="M1638 647H-697V1591H1638V647Z" fill="url(#paint1_linear_177_567)"/>
</g>
<path opacity="0.4" d="M1877.52 330.495C1791.72 366.851 1751.48 333.474 1670.58 347.841C1602.15 359.994 1552.58 383.261 1511.54 408.939C1438.49 454.641 1447.12 516.059 1365.55 553.489C1281.28 592.17 1243.39 527.873 1157.59 564.229C1071.79 600.585 1043.41 552.208 957.609 588.565C871.804 624.921 900.178 673.298 814.373 709.655" stroke="url(#paint2_linear_177_567)" stroke-width="7" stroke-miterlimit="10"/>
<path opacity="0.4" d="M572.799 669.415C643.025 640.614 656.025 589.064 752.658 570.188C844.13 552.281 880.277 680.53 1016 638.683C1103.56 611.683 1089.39 532.039 1189.03 499.958C1285.94 468.744 1348.95 567.425 1445 528.036C1541.04 488.648 1527.33 357.42 1616.43 308.657C1695.29 265.493 1748.74 298.093 1791.27 307.086" stroke="url(#paint3_linear_177_567)" stroke-width="8" stroke-miterlimit="10"/>
<path opacity="0.04" d="M-181.2 559L-1.6 279H76.4L144 559H65.2L15.2 316.6H46.4L-97.6 559H-181.2ZM-102.8 504.6L-70.8 446.2H66L74.8 504.6H-102.8ZM121.219 559L249.619 427.4L239.219 465.8L172.419 342.2H252.019L293.219 421.4L258.419 421L332.419 342.2H416.019L293.219 469.8L299.619 430.2L370.019 559H289.219L246.819 477.4H282.819L207.219 559H121.219ZM511.825 562.6C488.625 562.6 468.358 558.6 451.025 550.6C433.958 542.333 420.625 530.867 411.025 516.2C401.425 501.267 396.625 483.8 396.625 463.8C396.625 439.8 402.092 418.467 413.025 399.8C423.958 380.867 439.292 365.933 459.025 355C478.758 344.067 501.692 338.6 527.825 338.6C549.958 338.6 568.892 342.6 584.625 350.6C600.625 358.6 612.892 369.8 621.425 384.2C630.225 398.333 634.625 414.867 634.625 433.8C634.625 440.2 634.225 446.333 633.425 452.2C632.625 458.067 631.558 463.8 630.225 469.4H456.225L463.425 429.4H595.025L563.425 441C565.558 430.6 565.158 421.933 562.225 415C559.558 407.8 554.892 402.333 548.225 398.6C541.825 394.6 533.825 392.6 524.225 392.6C511.958 392.6 501.825 395.667 493.825 401.8C486.092 407.933 480.225 416.333 476.225 427C472.492 437.4 470.625 448.733 470.625 461C470.625 475.933 474.758 487 483.025 494.2C491.292 501.133 503.692 504.6 520.225 504.6C529.825 504.6 539.158 503.133 548.225 500.2C557.558 497 565.692 492.6 572.625 487L604.225 534.6C590.625 544.733 575.825 551.933 559.825 556.2C544.092 560.467 528.092 562.6 511.825 562.6ZM766.903 562.6C743.703 562.6 723.436 558.6 706.103 550.6C689.036 542.333 675.703 530.867 666.103 516.2C656.503 501.267 651.703 483.8 651.703 463.8C651.703 439.8 657.17 418.467 668.103 399.8C679.036 380.867 694.37 365.933 714.103 355C733.836 344.067 756.77 338.6 782.903 338.6C805.036 338.6 823.97 342.6 839.703 350.6C855.703 358.6 867.97 369.8 876.503 384.2C885.303 398.333 889.703 414.867 889.703 433.8C889.703 440.2 889.303 446.333 888.503 452.2C887.703 458.067 886.636 463.8 885.303 469.4H711.303L718.503 429.4H850.103L818.503 441C820.636 430.6 820.236 421.933 817.303 415C814.636 407.8 809.97 402.333 803.303 398.6C796.903 394.6 788.903 392.6 779.303 392.6C767.036 392.6 756.903 395.667 748.903 401.8C741.17 407.933 735.303 416.333 731.303 427C727.57 437.4 725.703 448.733 725.703 461C725.703 475.933 729.836 487 738.103 494.2C746.37 501.133 758.77 504.6 775.303 504.6C784.903 504.6 794.236 503.133 803.303 500.2C812.636 497 820.77 492.6 827.703 487L859.303 534.6C845.703 544.733 830.903 551.933 814.903 556.2C799.17 560.467 783.17 562.6 766.903 562.6ZM920.875 640.2C909.408 640.2 898.075 638.467 886.875 635C875.408 631.533 866.342 627 859.675 621.4L893.675 567.8C898.208 571.533 903.275 574.467 908.875 576.6C914.475 579 920.608 580.2 927.275 580.2C934.742 580.2 941.142 578.333 946.475 574.6C951.808 570.867 956.875 565 961.675 557L977.275 531.8L983.675 524.2L1092.88 342.2H1167.28L1028.48 568.6C1017.28 587 1006.34 601.4 995.675 611.8C985.008 622.2 973.675 629.533 961.675 633.8C949.675 638.067 936.075 640.2 920.875 640.2ZM960.875 568.2L910.075 342.2H985.675L1021.68 517.4L960.875 568.2ZM1143.72 559L1186.92 342.2H1262.52L1219.32 559H1143.72ZM1235.32 318.2C1221.99 318.2 1211.32 314.6 1203.32 307.4C1195.59 299.933 1191.72 291 1191.72 280.6C1191.72 268.333 1196.12 258.067 1204.92 249.8C1213.99 241.533 1225.86 237.4 1240.52 237.4C1253.86 237.4 1264.52 240.867 1272.52 247.8C1280.52 254.733 1284.52 263.4 1284.52 273.8C1284.52 286.867 1279.99 297.533 1270.92 305.8C1261.86 314.067 1249.99 318.2 1235.32 318.2ZM1368.33 562.6C1352.86 562.6 1338.06 558.733 1323.93 551C1310.06 543.267 1298.73 532.067 1289.93 517.4C1281.13 502.733 1276.73 484.867 1276.73 463.8C1276.73 445.667 1279.8 429 1285.93 413.8C1292.06 398.6 1300.46 385.4 1311.13 374.2C1322.06 363 1334.6 354.333 1348.73 348.2C1363.13 341.8 1378.46 338.6 1394.73 338.6C1410.46 338.6 1424.2 341.267 1435.93 346.6C1447.93 351.933 1457.26 360.6 1463.93 372.6C1470.6 384.333 1473.93 399.8 1473.93 419C1473.93 438.2 1471.66 456.467 1467.13 473.8C1462.6 490.867 1455.8 506.067 1446.73 519.4C1437.93 532.733 1426.86 543.267 1413.53 551C1400.46 558.733 1385.4 562.6 1368.33 562.6ZM1394.73 501.4C1405.13 501.4 1414.06 498.867 1421.53 493.8C1429.26 488.733 1435.26 481.667 1439.53 472.6C1444.06 463.533 1446.33 453 1446.33 441C1446.33 428.467 1442.73 418.467 1435.53 411C1428.33 403.267 1418.33 399.4 1405.53 399.4C1395.66 399.4 1386.73 402.067 1378.73 407.4C1371 412.467 1364.86 419.533 1360.33 428.6C1356.06 437.667 1353.93 448.2 1353.93 460.2C1353.93 472.733 1357.53 482.733 1364.73 490.2C1371.93 497.667 1381.93 501.4 1394.73 501.4ZM1426.73 559L1434.33 522.6L1448.33 451L1458.33 379.4L1481.93 262.2H1557.93L1498.73 559H1426.73ZM1585.23 562.6C1572.43 562.6 1562.03 558.733 1554.03 551C1546.03 543 1542.03 533 1542.03 521C1542.03 506.333 1546.83 494.6 1556.43 485.8C1566.03 477 1577.49 472.6 1590.83 472.6C1603.63 472.6 1613.89 476.467 1621.63 484.2C1629.63 491.933 1633.63 501.933 1633.63 514.2C1633.63 523.8 1631.36 532.2 1626.83 539.4C1622.56 546.6 1616.69 552.333 1609.23 556.6C1602.03 560.6 1594.03 562.6 1585.23 562.6Z" fill="url(#paint4_linear_177_567)"/>
</g>
<defs>
<filter id="filter0_f_177_567" x="242.096" y="-490" width="1957.7" height="1827.99" filterUnits="userSpaceOnUse" color-interpolation-filters="sRGB">
<feFlood flood-opacity="0" result="BackgroundImageFix"/>
<feBlend mode="normal" in="SourceGraphic" in2="BackgroundImageFix" result="shape"/>
<feGaussianBlur stdDeviation="100" result="effect1_foregroundBlur_177_567"/>
</filter>
<linearGradient id="paint0_linear_177_567" x1="1352.26" y1="134.2" x2="1535.22" y2="541.937" gradientUnits="userSpaceOnUse">
<stop offset="0.150838" stop-color="#0194FE"/>
<stop offset="1" stop-color="#0194FE" stop-opacity="0"/>
</linearGradient>
<linearGradient id="paint1_linear_177_567" x1="-342.477" y1="766.307" x2="790.711" y2="1494.64" gradientUnits="userSpaceOnUse">
<stop stop-color="#01081A"/>
<stop offset="0.749787" stop-color="#02518D"/>
<stop offset="1" stop-color="#04226B"/>
</linearGradient>
<linearGradient id="paint2_linear_177_567" x1="684.804" y1="821.64" x2="1739.67" y2="-22.4968" gradientUnits="userSpaceOnUse">
<stop offset="0.113648" stop-color="#1D6D6A" stop-opacity="0"/>
<stop offset="0.428631" stop-color="#17504D" stop-opacity="0.44"/>
<stop offset="0.544629" stop-color="#63BDB9"/>
<stop offset="0.702365" stop-color="#38928E" stop-opacity="0.55"/>
<stop offset="0.860994" stop-color="#217A76" stop-opacity="0"/>
</linearGradient>
<linearGradient id="paint3_linear_177_567" x1="682.71" y1="821.087" x2="1519.88" y2="-62.9258" gradientUnits="userSpaceOnUse">
<stop offset="0.181413" stop-color="#004DF4" stop-opacity="0"/>
<stop offset="0.461957" stop-color="#004DF4"/>
<stop offset="0.742141" stop-color="#26DDFF"/>
<stop offset="0.89353" stop-color="#26DDFF" stop-opacity="0"/>
</linearGradient>
<linearGradient id="paint4_linear_177_567" x1="752.5" y1="172" x2="752.5" y2="660" gradientUnits="userSpaceOnUse">
<stop offset="0.436735" stop-color="white"/>
<stop offset="1" stop-color="white" stop-opacity="0"/>
</linearGradient>
<clipPath id="clip0_177_567">
<rect width="1920" height="1596" fill="white"/>
</clipPath>
</defs>
</svg>
